<svg id="Layer_1" data-name="Layer 1" xmlns="http://www.w3.org/2000/svg" viewBox="0 0 273.09 149.18"><defs><style>.cls-1{font-size:12px;fill:#5a5a5a;font-family:Lato-Regular, Lato;}.cls-2{letter-spacing:-0.02em;}.cls-3{letter-spacing:-0.01em;}.cls-4{letter-spacing:0em;}.cls-5{font-size:72px;font-family:Lato-Black, Lato;letter-spacing:-0.07em;}.cls-10,.cls-5{fill:#1d1d1b;}.cls-6{letter-spacing:0em;}.cls-7{fill:#ca6233;}.cls-8{fill:#da1018;}.cls-9{fill:#f8da32;}.cls-10{font-size:14px;font-family:Lato-Bold, Lato;font-weight:700;letter-spacing:-0.03em;}</style></defs><title>WAEDD-logo</title><text class="cls-1" transform="translate(7.28 146.99)"><tspan class="cls-2">W</tspan><tspan x="12.04" y="0">estern Arizona Economic D</tspan><tspan class="cls-3" x="153.95" y="0">ev</tspan><tspan class="cls-4" x="166.07" y="0">elopment District</tspan></text><text class="cls-5" transform="translate(0 129.42)">W<tspan class="cls-6" x="72.07" y="0">AEDD</tspan></text><path class="cls-7" d="M134.37,50.5h0A11.21,11.21,0,0,1,143,54.41c3.43,3.66,7,3.93,11.64,3.93s8.21-.27,11.64-3.93a11.21,11.21,0,0,1,8.6-3.91,11.41,11.41,0,0,1,0,22.82,11.22,11.22,0,0,1-8.6-3.92c-3.43-3.65-7-3.93-11.64-3.93s-8.21.28-11.64,3.93a11.22,11.22,0,0,1-8.61,3.92,11.41,11.41,0,0,1,0-22.82" transform="translate(-18.45 -14.74)"/><path class="cls-8" d="M127.06,42.9h0c2.31,4,4.35,7,9.23,8.12a11.21,11.21,0,0,1,7.69,5.5,11.41,11.41,0,0,1-19.76,11.4,11.17,11.17,0,0,1-.91-9.4c1.44-4.81-.12-8.06-2.42-12.05s-4.34-7-9.2-8.11a11.24,11.24,0,0,1-7.71-5.5,11.42,11.42,0,0,1,10.7-17.08,11.15,11.15,0,0,1,7.72,3.82c3.49,3.68,6.9,4,11.71,4,4.6,0,8.2-.28,11.64-3.93a11.18,11.18,0,0,1,8.6-3.91,11.41,11.41,0,1,1,0,22.81,11.18,11.18,0,0,1-8.6-3.91c-3.44-3.65-7-3.93-11.64-3.93-10.78,0-12.43,2.85-7.05,12.18" transform="translate(-18.45 -14.74)"/><path class="cls-8" d="M145.06,21.45a11.18,11.18,0,0,0-.92,9.4c1.45,4.81-.11,8.06-2.42,12s-4.34,7-9.22,8.12a11.19,11.19,0,0,0-7.69,5.5,11.41,11.41,0,1,0,19.76,11.4,11.21,11.21,0,0,0,.91-9.4c-1.44-4.81.11-8.06,2.42-12.05s4.34-7,9.22-8.12a11.21,11.21,0,0,0,7.69-5.49,11.4,11.4,0,1,0-19.75-11.41" transform="translate(-18.45 -14.74)"/><path class="cls-9" d="M168.44,41.9h0c2.31,4,4.35,7,9.23,8.12a11.21,11.21,0,0,1,7.69,5.5,11.41,11.41,0,0,1-19.76,11.4,11.17,11.17,0,0,1-.91-9.4c1.44-4.81-.12-8.06-2.42-12.05s-4.34-7-9.2-8.11a11.28,11.28,0,0,1-7.72-5.5,11.43,11.43,0,0,1,10.71-17.08,11.15,11.15,0,0,1,7.72,3.82c3.49,3.68,6.9,4,11.71,4,4.6,0,8.2-.28,11.64-3.93a11.18,11.18,0,0,1,8.6-3.91,11.41,11.41,0,1,1,0,22.81,11.18,11.18,0,0,1-8.6-3.91c-3.44-3.65-7-3.93-11.64-3.93-10.78,0-12.43,2.85-7.05,12.18" transform="translate(-18.45 -14.74)"/><path class="cls-9" d="M185.43,21.45a11.21,11.21,0,0,0-.91,9.4c1.44,4.81-.11,8.06-2.42,12s-4.34,7-9.22,8.12a11.19,11.19,0,0,0-7.69,5.5A11.41,11.41,0,1,0,185,67.92a11.21,11.21,0,0,0,.91-9.4c-1.44-4.81.11-8.06,2.42-12.05s4.34-7,9.22-8.12a11.21,11.21,0,0,0,7.69-5.49,11.41,11.41,0,1,0-19.76-11.41" transform="translate(-18.45 -14.74)"/><text class="cls-10" transform="translate(262.36 78.38)">©</text></svg>